<mxfile host="app.diagrams.net" modified="2024-05-11T12:01:00.628Z" agent="Mozilla/5.0 (X11; Ubuntu; Linux x86_64; rv:125.0) Gecko/20100101 Firefox/125.0" etag="gluZhu0taR1xPqHp6DPi" version="24.4.0" type="device">
  <diagram name="Page-1" id="B6N4WW4GB583knlXCKYC">
    <mxGraphModel dx="1972" dy="1327" grid="1" gridSize="10" guides="1" tooltips="1" connect="1" arrows="1" fold="1" page="0" pageScale="1" pageWidth="850" pageHeight="1100" math="0" shadow="0">
      <root>
        <mxCell id="0" />
        <mxCell id="1" parent="0" />
        <mxCell id="lgSUdNdctRrW7hIqT778-37" value="" style="rounded=1;whiteSpace=wrap;html=1;fillColor=#f5f5f5;gradientColor=#b3b3b3;strokeColor=#666666;opacity=60;glass=0;shadow=0;" vertex="1" parent="1">
          <mxGeometry x="-150" y="-100" width="450" height="230" as="geometry" />
        </mxCell>
        <mxCell id="lgSUdNdctRrW7hIqT778-5" style="edgeStyle=orthogonalEdgeStyle;rounded=0;orthogonalLoop=1;jettySize=auto;html=1;entryX=0;entryY=0.5;entryDx=0;entryDy=0;" edge="1" parent="1" source="lgSUdNdctRrW7hIqT778-1" target="lgSUdNdctRrW7hIqT778-3">
          <mxGeometry relative="1" as="geometry">
            <Array as="points">
              <mxPoint x="140" y="220" />
              <mxPoint x="140" y="60" />
            </Array>
          </mxGeometry>
        </mxCell>
        <mxCell id="lgSUdNdctRrW7hIqT778-7" style="edgeStyle=orthogonalEdgeStyle;rounded=0;orthogonalLoop=1;jettySize=auto;html=1;entryX=0;entryY=0.5;entryDx=0;entryDy=0;" edge="1" parent="1" source="lgSUdNdctRrW7hIqT778-1" target="lgSUdNdctRrW7hIqT778-2">
          <mxGeometry relative="1" as="geometry" />
        </mxCell>
        <mxCell id="lgSUdNdctRrW7hIqT778-27" value="&lt;div style=&quot;font-size: 18px;&quot;&gt;&lt;font style=&quot;font-size: 18px;&quot;&gt;Claim&amp;nbsp;&lt;/font&gt;&lt;/div&gt;&lt;div style=&quot;font-size: 18px;&quot;&gt;&lt;font style=&quot;font-size: 18px;&quot;&gt;Embedding&lt;/font&gt;&lt;/div&gt;" style="edgeLabel;html=1;align=center;verticalAlign=middle;resizable=0;points=[];labelBackgroundColor=none;" vertex="1" connectable="0" parent="lgSUdNdctRrW7hIqT778-7">
          <mxGeometry x="-0.4387" y="3" relative="1" as="geometry">
            <mxPoint x="21" y="-37" as="offset" />
          </mxGeometry>
        </mxCell>
        <mxCell id="lgSUdNdctRrW7hIqT778-1" value="" style="rounded=1;whiteSpace=wrap;html=1;" vertex="1" parent="1">
          <mxGeometry y="160" width="120" height="120" as="geometry" />
        </mxCell>
        <mxCell id="lgSUdNdctRrW7hIqT778-8" style="edgeStyle=orthogonalEdgeStyle;rounded=0;orthogonalLoop=1;jettySize=auto;html=1;" edge="1" parent="1" source="lgSUdNdctRrW7hIqT778-2">
          <mxGeometry relative="1" as="geometry">
            <mxPoint x="480" y="220" as="targetPoint" />
          </mxGeometry>
        </mxCell>
        <mxCell id="lgSUdNdctRrW7hIqT778-26" value="&lt;font style=&quot;font-size: 18px;&quot;&gt;Prediction&lt;/font&gt;" style="edgeLabel;html=1;align=center;verticalAlign=middle;resizable=0;points=[];" vertex="1" connectable="0" parent="lgSUdNdctRrW7hIqT778-8">
          <mxGeometry x="0.7308" y="-1" relative="1" as="geometry">
            <mxPoint x="46" y="-1" as="offset" />
          </mxGeometry>
        </mxCell>
        <mxCell id="lgSUdNdctRrW7hIqT778-2" value="" style="rounded=1;whiteSpace=wrap;html=1;" vertex="1" parent="1">
          <mxGeometry x="320" y="160" width="120" height="120" as="geometry" />
        </mxCell>
        <mxCell id="lgSUdNdctRrW7hIqT778-40" style="edgeStyle=orthogonalEdgeStyle;rounded=0;orthogonalLoop=1;jettySize=auto;html=1;entryX=0.5;entryY=0;entryDx=0;entryDy=0;" edge="1" parent="1" source="lgSUdNdctRrW7hIqT778-3" target="lgSUdNdctRrW7hIqT778-2">
          <mxGeometry relative="1" as="geometry" />
        </mxCell>
        <mxCell id="lgSUdNdctRrW7hIqT778-3" value="" style="rounded=1;whiteSpace=wrap;html=1;" vertex="1" parent="1">
          <mxGeometry x="160" width="120" height="120" as="geometry" />
        </mxCell>
        <mxCell id="lgSUdNdctRrW7hIqT778-11" value="&lt;font style=&quot;font-size: 16px;&quot; color=&quot;#000000&quot;&gt;Encoder Model&lt;br&gt;&lt;/font&gt;" style="sketch=0;outlineConnect=0;fontColor=#ffffff;fillColor=#1ba1e2;strokeColor=#006EAF;dashed=0;verticalLabelPosition=bottom;verticalAlign=top;align=center;html=1;fontSize=12;fontStyle=0;aspect=fixed;pointerEvents=1;shape=mxgraph.aws4.sagemaker_model;" vertex="1" parent="1">
          <mxGeometry x="21" y="170" width="78" height="78" as="geometry" />
        </mxCell>
        <mxCell id="lgSUdNdctRrW7hIqT778-15" value="&lt;font style=&quot;font-size: 18px;&quot; color=&quot;#000000&quot;&gt;NLI Model&lt;br&gt;&lt;/font&gt;" style="outlineConnect=0;dashed=0;verticalLabelPosition=bottom;verticalAlign=top;align=center;html=1;shape=mxgraph.aws3.vpc_nat_gateway;fillColor=#1ba1e2;strokeColor=#006EAF;fontColor=#ffffff;" vertex="1" parent="1">
          <mxGeometry x="345.5" y="176" width="69" height="72" as="geometry" />
        </mxCell>
        <mxCell id="lgSUdNdctRrW7hIqT778-22" style="edgeStyle=orthogonalEdgeStyle;rounded=0;orthogonalLoop=1;jettySize=auto;html=1;" edge="1" parent="1" target="lgSUdNdctRrW7hIqT778-1">
          <mxGeometry relative="1" as="geometry">
            <mxPoint x="-40" y="220" as="sourcePoint" />
          </mxGeometry>
        </mxCell>
        <mxCell id="lgSUdNdctRrW7hIqT778-16" value="&lt;font style=&quot;font-size: 18px;&quot; color=&quot;#000000&quot;&gt;Claim&lt;/font&gt;" style="sketch=0;outlineConnect=0;fillColor=#000000;strokeColor=#314354;dashed=0;verticalLabelPosition=bottom;verticalAlign=top;align=center;html=1;fontSize=12;fontStyle=0;aspect=fixed;pointerEvents=1;shape=mxgraph.aws4.document;fontColor=#ffffff;" vertex="1" parent="1">
          <mxGeometry x="-110" y="173" width="57" height="78" as="geometry" />
        </mxCell>
        <mxCell id="lgSUdNdctRrW7hIqT778-32" style="edgeStyle=orthogonalEdgeStyle;rounded=0;orthogonalLoop=1;jettySize=auto;html=1;" edge="1" parent="1" target="lgSUdNdctRrW7hIqT778-29">
          <mxGeometry relative="1" as="geometry">
            <mxPoint x="-40" y="-20" as="sourcePoint" />
          </mxGeometry>
        </mxCell>
        <mxCell id="lgSUdNdctRrW7hIqT778-17" value="&lt;font style=&quot;font-size: 18px;&quot;&gt;&lt;font style=&quot;font-size: 18px;&quot; color=&quot;#000000&quot;&gt;Ground Truth&lt;/font&gt;&lt;br&gt;&lt;/font&gt;" style="sketch=0;outlineConnect=0;dashed=0;verticalLabelPosition=bottom;verticalAlign=top;align=center;html=1;fontSize=12;fontStyle=0;aspect=fixed;pointerEvents=1;shape=mxgraph.aws4.documents;fillColor=#1A1A1A;strokeColor=#314354;fontColor=#ffffff;" vertex="1" parent="1">
          <mxGeometry x="-117" y="-70" width="64" height="78" as="geometry" />
        </mxCell>
        <mxCell id="lgSUdNdctRrW7hIqT778-25" value="&lt;div style=&quot;font-size: 18px;&quot;&gt;&lt;font style=&quot;font-size: 18px;&quot; color=&quot;#000000&quot;&gt;Vector&lt;/font&gt;&lt;/div&gt;&lt;div style=&quot;font-size: 18px;&quot;&gt;&lt;font style=&quot;font-size: 18px;&quot; color=&quot;#000000&quot;&gt;Database&lt;/font&gt;&lt;/div&gt;" style="sketch=0;html=1;aspect=fixed;strokeColor=#006EAF;shadow=0;fillColor=#1ba1e2;verticalAlign=top;labelPosition=center;verticalLabelPosition=bottom;shape=mxgraph.gcp2.database_2;fontColor=#ffffff;" vertex="1" parent="1">
          <mxGeometry x="196.6" y="10" width="46.8" height="60" as="geometry" />
        </mxCell>
        <mxCell id="lgSUdNdctRrW7hIqT778-28" value="&lt;div style=&quot;font-size: 18px;&quot;&gt;&lt;font style=&quot;font-size: 18px;&quot;&gt;Top K Similar&lt;/font&gt;&lt;/div&gt;&lt;div style=&quot;font-size: 18px;&quot;&gt;&lt;font style=&quot;font-size: 18px;&quot;&gt;Embeddings&lt;/font&gt;&lt;/div&gt;" style="text;html=1;align=center;verticalAlign=middle;resizable=0;points=[];autosize=1;strokeColor=none;fillColor=none;" vertex="1" parent="1">
          <mxGeometry x="390" y="70" width="130" height="60" as="geometry" />
        </mxCell>
        <mxCell id="lgSUdNdctRrW7hIqT778-34" style="edgeStyle=orthogonalEdgeStyle;rounded=0;orthogonalLoop=1;jettySize=auto;html=1;entryX=0.5;entryY=0;entryDx=0;entryDy=0;" edge="1" parent="1" source="lgSUdNdctRrW7hIqT778-29" target="lgSUdNdctRrW7hIqT778-3">
          <mxGeometry relative="1" as="geometry" />
        </mxCell>
        <mxCell id="lgSUdNdctRrW7hIqT778-35" value="&lt;div style=&quot;font-size: 18px;&quot;&gt;&lt;font style=&quot;font-size: 18px;&quot;&gt;Ground Truth&lt;/font&gt;&lt;/div&gt;&lt;div style=&quot;font-size: 18px;&quot;&gt;&lt;font style=&quot;font-size: 18px;&quot;&gt;Embeddings&lt;/font&gt;&lt;/div&gt;" style="edgeLabel;html=1;align=center;verticalAlign=middle;resizable=0;points=[];labelBorderColor=none;labelBackgroundColor=none;" vertex="1" connectable="0" parent="lgSUdNdctRrW7hIqT778-34">
          <mxGeometry x="-0.4437" y="-3" relative="1" as="geometry">
            <mxPoint x="43" y="-33" as="offset" />
          </mxGeometry>
        </mxCell>
        <mxCell id="lgSUdNdctRrW7hIqT778-29" value="" style="rounded=1;whiteSpace=wrap;html=1;" vertex="1" parent="1">
          <mxGeometry y="-80" width="120" height="120" as="geometry" />
        </mxCell>
        <mxCell id="lgSUdNdctRrW7hIqT778-30" value="&lt;font style=&quot;font-size: 16px;&quot; color=&quot;#000000&quot;&gt;Encoder Model&lt;br&gt;&lt;/font&gt;" style="sketch=0;outlineConnect=0;fontColor=#ffffff;fillColor=#1ba1e2;strokeColor=#006EAF;dashed=0;verticalLabelPosition=bottom;verticalAlign=top;align=center;html=1;fontSize=12;fontStyle=0;aspect=fixed;pointerEvents=1;shape=mxgraph.aws4.sagemaker_model;" vertex="1" parent="1">
          <mxGeometry x="21" y="-70" width="78" height="78" as="geometry" />
        </mxCell>
      </root>
    </mxGraphModel>
  </diagram>
</mxfile>
